<svg xmlns="http://www.w3.org/2000/svg" viewBox="0 0 1328.73 525.61"><path fill="#ffffff" d="M425.9,71.43H391V34.16A34.15,34.15,0,0,0,356.87,0h-.72A34.15,34.15,0,0,0,322,34.16V71.43H287.12A34.15,34.15,0,0,0,253,105.58v.71a34.15,34.15,0,0,0,34.15,34.16H322v32.48a34.15,34.15,0,0,0,34.15,34.15h.72A34.15,34.15,0,0,0,391,172.93V140.45H425.9a34.15,34.15,0,0,0,34.15-34.16v-.71A34.15,34.15,0,0,0,425.9,71.43Z"/><path fill="#ffffff" d="M389.71,286.84a26.74,26.74,0,0,0-.59-5.48,34,34,0,0,0-33.36-27.72H355a34.08,34.08,0,0,0-34,34.16v53.91c-.87,21.07-6.11,40.14-16.18,57a117.79,117.79,0,0,1-45.29,43.5Q230.8,458,194.14,458q-35.25,0-63.28-15.83a121.89,121.89,0,0,1-44.94-43.5Q69,371,69,335.78V32.62A32.62,32.62,0,0,0,36.4,0H32.62A32.63,32.63,0,0,0,0,32.62V337.94q0,56.81,25.89,99.22a175.87,175.87,0,0,0,69.73,65.43q43.86,23,98.52,23t98.87-23a178,178,0,0,0,70.46-65.43q26.22-42.41,26.24-99.22V302.63l.05-.1V287.8c0-.2-.05-.38-.05-.57Z"/><path fill="#ffffff" d="M553.38,180.17h20.5v83.62a45.74,45.74,0,0,1-6.78,24.87,46.59,46.59,0,0,1-18.18,16.76,57,57,0,0,1-50.81,0,45.5,45.5,0,0,1-24.78-41.63V180.17H494v83.08a26,26,0,0,0,4,14.09,29.34,29.34,0,0,0,25.4,13.9,31.14,31.14,0,0,0,15.34-3.74,28.38,28.38,0,0,0,10.69-10.16,26.48,26.48,0,0,0,3.93-14.09ZM631,241.32a32.51,32.51,0,0,0-8.26,10.78l-1.46-17.55h-18V310h19.78V277.52a26.67,26.67,0,0,1,3.57-13.29,26.94,26.94,0,0,1,9.9-10.07,24.45,24.45,0,0,1,14.88-3l.89-20q-3.74,0-9.71,2.67A48,48,0,0,0,631,241.32Zm111.07,9.54a44.29,44.29,0,0,1,0,41.19,37.18,37.18,0,0,1-14.53,14.53q-9.45,5.34-22.11,5.34a47.09,47.09,0,0,1-21.84-4.9,36.53,36.53,0,0,1-15-14q-5.45-9.11-5.44-21.58a39.63,39.63,0,0,1,5.44-20.59,38.68,38.68,0,0,1,15.06-14.44,45.07,45.07,0,0,1,21.93-5.26q12.66,0,22,5.26A36.73,36.73,0,0,1,742.09,250.86ZM727,271.63a26.62,26.62,0,0,0-2.77-12.21,22.15,22.15,0,0,0-7.66-8.65,20.54,20.54,0,0,0-11.5-3.21,19.5,19.5,0,0,0-11.15,3.3,23.6,23.6,0,0,0-7.75,8.65,27,27,0,0,0,0,24.16,22.48,22.48,0,0,0,7.84,8.64,20,20,0,0,0,11.06,3.21,20.54,20.54,0,0,0,11.5-3.21,22.12,22.12,0,0,0,7.66-8.64A26.24,26.24,0,0,0,727,271.63Zm149.49-48.58a77.11,77.11,0,0,1,3.83,23.8,63.63,63.63,0,0,1-5.17,26.21A59.87,59.87,0,0,1,861,292.94a63,63,0,0,1-20.68,12.66,70,70,0,0,1-24.7,4.36H772.49V180.17h36.9q19.26,0,32.9,5.89t22,15.51A61,61,0,0,1,876.52,223.05ZM859,245.42q0-12.12-4-20.77a40.11,40.11,0,0,0-10.52-14.08,43.89,43.89,0,0,0-14.18-8A47,47,0,0,0,815.1,200H793.35v90h18.54a57.91,57.91,0,0,0,18.9-2.95,43.46,43.46,0,0,0,14.88-8.55,37.77,37.77,0,0,0,9.81-14A49.36,49.36,0,0,0,859,245.42ZM964.5,234.55h18.36V310h-20V299l-.81.89a46.68,46.68,0,0,1-6,5.26A35.62,35.62,0,0,1,947.3,310a32.79,32.79,0,0,1-11.86,2,41.26,41.26,0,0,1-19.17-4.45,32.55,32.55,0,0,1-13.63-13.29q-5-8.82-5-21.83,0-12.84,5.26-22a37.53,37.53,0,0,1,13.91-14.18,37,37,0,0,1,18.81-5q10.88,0,17.56,4.37a35.87,35.87,0,0,1,9.87,9.28Zm-1.6,44.93V263.07a21,21,0,0,0-4.64-8.11,22.58,22.58,0,0,0-7.75-5.44,25.38,25.38,0,0,0-10.08-2,21.69,21.69,0,0,0-11.32,3,23.21,23.21,0,0,0-8.2,8.38,24.69,24.69,0,0,0,8.65,33.34A21.77,21.77,0,0,0,941,295.52a24.48,24.48,0,0,0,10-2,20.54,20.54,0,0,0,7.49-5.53A22.64,22.64,0,0,0,962.9,279.48Zm129.25-29.15Q1097,259.51,1097,272t-5.26,21.39a35.48,35.48,0,0,1-14.53,13.73,45,45,0,0,1-21,4.81,35.75,35.75,0,0,1-15.16-3.38,30.9,30.9,0,0,1-10.87-8.17v45.79h-19.79v-113h17.29l1.72,11.26a46.78,46.78,0,0,1,12.63-9.21,39.21,39.21,0,0,1,17.92-4,36.65,36.65,0,0,1,19.08,5A35.06,35.06,0,0,1,1092.15,250.33Zm-15.33,22a24.78,24.78,0,0,0-3.12-12.57,23.18,23.18,0,0,0-8.38-8.56,22.47,22.47,0,0,0-11.68-3.12,26.74,26.74,0,0,0-10.52,2,21.44,21.44,0,0,0-7.84,5.61,26.57,26.57,0,0,0-5,8.65v15.16a23.05,23.05,0,0,0,4.28,8.64,19.84,19.84,0,0,0,7.67,5.89,24.53,24.53,0,0,0,10,2.05,25.34,25.34,0,0,0,12.21-3,23.77,23.77,0,0,0,9-8.47A22.63,22.63,0,0,0,1076.82,272.35Zm68.64-71h-20v33.16h-13v15.69h13V310h20V250.24h19.61V234.55h-19.61Zm114.63,64.18-58,19.56a21.16,21.16,0,0,0,7.19,6.74,23.4,23.4,0,0,0,11.77,2.94,24.42,24.42,0,0,0,8.82-1.61,39,39,0,0,0,8.11-4.28l9.1,14.8a55,55,0,0,1-12.93,6,44.77,44.77,0,0,1-13.46,2.22q-13.37,0-22.82-5.17a35.42,35.42,0,0,1-14.44-14.26,42.59,42.59,0,0,1-5-20.86,37.91,37.91,0,0,1,5.7-20.41,41.91,41.91,0,0,1,15.42-14.62,43.2,43.2,0,0,1,21.49-5.44q15.51,0,25.58,9T1260.09,265.57Zm-62,5c0,1,0,2,.14,3l39.53-14.07a21.77,21.77,0,0,0-6-8.66q-4.46-4-12.3-4a20.3,20.3,0,0,0-11,3,21.3,21.3,0,0,0-7.58,8.29A26.33,26.33,0,0,0,1198.05,270.56Zm121-36.73a48.38,48.38,0,0,0-11.59,7.49,32.48,32.48,0,0,0-8.25,10.78l-1.46-17.55h-18V310h19.79V277.52A27.42,27.42,0,0,1,1313,254.16a24.48,24.48,0,0,1,14.89-3l.89-20Q1325,231.16,1319,233.83Z"/></svg>