<?xml version="1.0" encoding="utf-8"?>
<!-- Generator: Adobe Illustrator 26.0.1, SVG Export Plug-In . SVG Version: 6.00 Build 0)  -->
<svg version="1.1" id="Layer_1" xmlns="http://www.w3.org/2000/svg" xmlns:xlink="http://www.w3.org/1999/xlink" x="0px" y="0px"
	 viewBox="0 0 774 190" style="enable-background:new 0 0 774 190;" xml:space="preserve">
<style type="text/css">
	.st0{fill:#FFFFFF;}
</style>
<path class="st0" d="M78.6,0C65.4,0,53.2,4.1,44.3,11.6c-9.3,7.8-14.5,18.8-14.5,31c0,27.7,23.3,38,33.2,42.3l21.6,9.7l0-0.1
	l0.3,0.1c13.9,6.1,28.2,15.5,28.2,39c0,24.3-14.5,40.3-37.1,41.4c-0.8,0-1.6,0.1-2.5,0.1c-32.4,0-58.7-26.3-58.7-58.7V0H0v116.4
	C0,157,33,190,73.6,190c1.1,0,2.1,0,3.2-0.1c39.1-1.7,70.5-34,70.5-73.6V0H78.6z"/>
<g>
	<path class="st0" d="M229.8,133.1c-6-6.3-8.9-13.8-8.9-22.5V47.1c0-0.6,0.3-0.9,0.9-0.9h4.5c0.6,0,0.9,0.3,0.9,0.9v63.6
		c0,6.9,2.3,13,7,18c4.8,5.1,10.6,7.8,17.4,8.1c7.2,0.3,13.4-2.1,18.6-7.2c5.2-5,7.8-11.1,7.8-18.3V47.1c0-0.6,0.3-0.9,0.9-0.9h4.5
		c0.6,0,0.9,0.3,0.9,0.9v64.2c0,8.9-3.2,16.5-9.6,22.8c-6.5,6.3-14.2,9.3-23.2,9C243.1,142.8,235.8,139.5,229.8,133.1z"/>
</g>
<g>
	<path class="st0" d="M330.7,84.8c0.6,0.1,0.9,0.5,0.7,1.2l-0.9,4.4c-0.1,0.6-0.5,0.8-1.1,0.7c-0.8-0.1-1.6-0.2-2.5-0.2
		c-4.6,0-8.6,1.6-11.9,4.9c-3.3,3.3-4.9,7.3-4.9,11.9v34.4c0,0.6-0.3,0.9-0.9,0.9h-4.5c-0.6,0-0.9-0.3-0.9-0.9V85.1
		c0-0.6,0.3-0.9,0.9-0.9h4.5c0.6,0,0.9,0.3,0.9,0.9v6.8c4.6-4.9,10.2-7.3,16.9-7.3C328.2,84.5,329.5,84.6,330.7,84.8z"/>
</g>
<path class="st0" d="M343.4,134.5c-5.7-5.8-8.6-12.7-8.6-20.8c0-8.1,2.9-15,8.6-20.8s12.7-8.6,20.8-8.6c8.1,0,15,2.9,20.7,8.6
	c5.8,5.7,8.7,12.7,8.7,20.8c0,8.1-2.9,15-8.7,20.8c-5.7,5.7-12.6,8.6-20.7,8.6C356.1,143.1,349.2,140.2,343.4,134.5z M347.9,97.4
	c-4.5,4.5-6.7,9.9-6.7,16.2c0,6.3,2.2,11.7,6.7,16.2c4.5,4.5,10,6.8,16.3,6.8c6.3,0,11.7-2.3,16.2-6.8c4.5-4.5,6.8-9.9,6.8-16.2
	c0-6.4-2.3-11.8-6.8-16.2c-4.5-4.5-9.9-6.8-16.2-6.8C357.8,90.7,352.4,92.9,347.9,97.4z"/>
<g>
	<path class="st0" d="M455.9,60c-0.4,0.4-0.8,0.4-1.2,0.1c-0.4-0.3-0.7-0.5-1-0.8c-0.5-0.3-1-0.7-1.4-1c-1.2-0.9-2.4-1.6-3.5-2.3
		c-2.8-1.5-5.8-2.6-8.9-3.2c-2.3-0.5-4.2-0.7-5.8-0.7h-1.6h-1.6c-0.5,0-1.1,0-1.8,0.1l-0.8,0.1l-0.8,0.1c-2.6,0.4-4.8,0.9-6.6,1.6
		c-2.3,0.9-4.3,2.1-5.8,3.7c-1.6,1.6-2.8,3.7-3.5,6.1l-0.2,0.9c-0.1,0.4-0.1,0.7-0.1,0.9c-0.1,0.8-0.2,1.4-0.2,1.9l-0.1,1v0.1v0.1
		v-0.2v0.1v0.3l0.1,0.5l0.1,1.2l0.1,0.8l0.1,0.4l0.1,0.5l0.3,0.9c0,0.2,0.2,0.5,0.3,0.9l0.2,0.4l0.2,0.5l0.5,0.8l0.5,0.8l0.3,0.4
		l0.3,0.4c0.2,0.3,0.4,0.6,0.6,0.7c1.7,1.9,3.9,3.6,6.8,5.3c2.1,1.2,4.9,2.6,8.4,4.1L431,88l1.2,0.5l2.2,1l4.4,2
		c3.6,1.6,6.6,3.2,9.1,4.7c3.3,2.1,6,4.4,8.1,6.8c2.5,2.9,4.1,6.2,4.8,9.8l0.3,1.4c0.1,0.5,0.1,1,0.1,1.4l0.1,1.4l0.1,0.7v0.2v0.1
		v0.1v0.3l-0.1,1.2l-0.1,0.5c0,0.3,0,0.5,0,0.7l-0.2,1.4l-0.2,1.4c-0.7,3.6-2.1,6.7-4.3,9.4c-2,2.6-4.6,4.7-7.6,6.3
		c-2.4,1.3-5.3,2.3-8.5,3l-1,0.2l-1.1,0.1c-0.8,0.2-1.5,0.3-2,0.3l-2,0.2l-2,0.1l-0.9,0.1h-0.5h-0.3h-0.3l-1.8-0.1
		c-0.5,0-1.1,0-1.8-0.1l-0.9-0.1l-0.9-0.1c-2.1-0.2-4.3-0.7-6.7-1.3c-3.6-1-7-2.4-10.2-4.3c-1.2-0.7-2.4-1.5-3.5-2.2
		c-0.9-0.6-1.7-1.2-2.4-1.8c-0.5-0.4-0.9-0.8-1.4-1.2c-0.5-0.5-0.5-0.9,0-1.4l3.3-3.1c0.4-0.4,0.8-0.4,1.3,0
		c0.3,0.2,0.5,0.5,0.8,0.7c0.6,0.5,1.3,1.1,2,1.6c0.9,0.7,1.9,1.3,3,1.9c2.8,1.6,5.7,2.8,8.7,3.7c2.1,0.6,4,1,5.8,1.2l0.7,0.1
		l0.7,0.1c0.6,0.1,1.2,0.1,1.7,0.1l1.8,0.1h0.2h0.1l0.4-0.1h0.9l1.7-0.1l1.8-0.1c0.5,0,1.1-0.1,1.8-0.2l0.9-0.2l0.9-0.1
		c2.7-0.6,4.9-1.4,6.8-2.4c2.3-1.1,4.1-2.6,5.6-4.5c1.5-2,2.6-4.3,3.1-6.9l0.1-0.9l0.1-0.9c0-0.1,0.1-0.3,0.1-0.5v-0.5l0.1-1.2v-0.3
		v-0.1v-0.1v0.1v-0.1v-0.5l-0.1-1c0-0.3,0-0.6-0.1-1l-0.1-0.5l-0.1-0.5c-0.5-2.6-1.7-5-3.5-7.1c-2.8-3.3-7.8-6.7-15-10l-4.5-2
		l-2.2-1.1l-1-0.5l-1.2-0.5c-3.7-1.6-6.7-3.1-9-4.5c-3.4-2-6.1-4.2-8.2-6.5c-0.3-0.3-0.6-0.6-0.9-1l-0.4-0.5l-0.4-0.5
		c-0.6-1-1.1-1.8-1.4-2.4l-0.3-0.7l-0.3-0.6c-0.2-0.5-0.4-0.9-0.5-1.3l-0.4-1.3l-0.1-0.7l-0.1-0.7l-0.3-1.4v-1.2l-0.1-0.5v-0.3v-0.1
		v-0.2c0,0,0,0,0,0v-0.1v-1.3c0-0.7,0.1-1.5,0.3-2.6c0-0.4,0.1-0.8,0.2-1.2l0.3-1.2c0.9-3.5,2.5-6.5,4.9-8.8
		c2.1-2.1,4.7-3.8,7.9-5.1c2.3-0.9,5-1.6,8.1-2l1-0.1l1-0.1c0.7-0.1,1.3-0.1,1.8-0.1h1.8l1.8,0.1c1.9,0,4.2,0.3,6.8,0.8
		c3.6,0.8,7.1,2.1,10.4,3.9c1.3,0.7,2.4,1.4,3.5,2.2c0.9,0.5,1.7,1.1,2.5,1.8c0.3,0.3,0.7,0.7,1.3,1.2c0.5,0.5,0.5,0.9,0,1.4
		L455.9,60z"/>
</g>
<g>
	<path class="st0" d="M489.2,168.1c-0.1,0.4-0.4,0.6-0.8,0.6h-4.9c-0.4,0-0.6-0.1-0.8-0.4c-0.2-0.3-0.2-0.6-0.1-0.9l9.7-24.2
		l-24-57.9c-0.1-0.3-0.1-0.6,0.1-0.9c0.2-0.3,0.4-0.4,0.7-0.4h4.9c0.4,0,0.7,0.2,0.8,0.5l20.8,50.2l20.2-50.2
		c0.2-0.4,0.5-0.5,0.9-0.5h4.9c0.3,0,0.6,0.1,0.7,0.4c0.2,0.3,0.2,0.5,0.1,0.8L489.2,168.1z"/>
</g>
<g>
	<path class="st0" d="M564.3,94.1c-0.4,0.4-0.8,0.4-1.3,0.1c-0.4-0.4-0.8-0.7-1.3-0.9c-0.5-0.4-1.1-0.7-1.6-1
		c-1.5-0.8-3.1-1.4-4.8-1.8c-1.3-0.2-2.3-0.4-3.2-0.4h-0.9h-0.9c-0.3,0-0.7,0-1,0.1h-0.4l-0.4,0.1c-1.4,0.2-2.6,0.5-3.6,0.9
		c-1.2,0.5-2.2,1.1-2.9,1.9c-0.8,0.8-1.4,1.8-1.7,3l-0.1,0.5l-0.1,0.5c0,0.5-0.1,0.8-0.1,1l-0.1,0.5v-0.1v0.1l0.1,0.2v0.3v0.6
		l0.1,0.4c0,0.1,0,0.2,0.1,0.3l0.1,0.5l0.1,0.4l0.2,0.4l0.2,0.4l0.3,0.4l0.3,0.4l0.3,0.4c0.9,0.9,2.1,1.9,3.6,2.8
		c1.2,0.7,2.8,1.5,4.7,2.4l0.7,0.3l0.7,0.3l1.3,0.6l2.6,1.1c2.1,1,3.9,1.9,5.3,2.8c2.1,1.3,3.7,2.7,5,4.3c1.6,1.9,2.7,3.9,3.1,6.2
		l0.2,0.9c0,0.4,0.1,0.7,0.1,0.9l0.1,0.8v0.5v0.3v0.2v0.3v0.3c0,0.3-0.1,0.5-0.1,0.7l-0.1,0.9l-0.1,0.9c-0.5,2.3-1.4,4.3-2.7,6
		c-1.3,1.7-2.9,3-4.9,4c-1.5,0.8-3.3,1.4-5.3,1.8c-1.9,0.4-3.5,0.6-4.9,0.6h-0.6h-0.3H550h-0.1l-1-0.1c-0.3,0-0.6,0-1.1-0.1h-0.6
		l-0.5-0.1c-1.3-0.2-2.6-0.5-4.1-0.8c-2.2-0.6-4.2-1.5-6.2-2.6c-0.9-0.5-1.8-1-2.6-1.6c-0.6-0.5-1.1-0.9-1.6-1.3
		c-0.5-0.5-0.5-0.9,0-1.4l3.2-3.1c0.4-0.4,0.8-0.4,1.3-0.1c0.3,0.3,0.7,0.6,1.1,0.9c0.5,0.4,1.1,0.8,1.8,1.2c1.5,0.9,3.1,1.5,4.7,2
		c1.2,0.3,2.2,0.5,3.1,0.7l0.4,0.1h0.4c0.3,0,0.6,0.1,0.9,0.1l1,0.1h0.1h0.3l0.5-0.1c1,0,2.3-0.1,3.9-0.3c1.4-0.3,2.7-0.7,3.7-1.3
		c2.4-1.2,3.9-3.1,4.4-5.8l0.1-0.5l0.1-0.4c0-0.1,0.1-0.3,0.1-0.6v-0.3v-0.3l0.1-0.2v-0.1v-0.1c0,0.1,0,0.2,0,0.1l-0.1-0.3v-0.5
		c0-0.1,0-0.3-0.1-0.5l-0.1-0.5c-0.3-1.3-0.9-2.5-1.8-3.6c-1.5-1.8-4.3-3.6-8.3-5.5l-2.6-1.2l-1.3-0.6l-0.5-0.3l-0.7-0.3
		c-2.2-1-4-1.9-5.3-2.7c-2.1-1.2-3.8-2.5-5.1-4c-0.2-0.2-0.4-0.4-0.5-0.7l-0.5-0.7c-0.4-0.6-0.7-1.2-0.9-1.6l-0.4-0.8
		c-0.1-0.3-0.2-0.6-0.3-0.8c-0.2-0.7-0.4-1.3-0.5-1.8l-0.1-0.9v-0.6l-0.1-0.3v-0.2v-0.1v-0.2v-0.1l0.1-0.8c0-0.4,0-0.9,0.1-1.6
		l0.1-0.8l0.2-0.8c0.6-2.2,1.6-4.1,3.2-5.6c1.4-1.4,3-2.4,5-3.2c1.4-0.5,3.1-0.9,5-1.2h0.7l0.6-0.1c0.5,0,0.8-0.1,1.1-0.1h1.1h1.2
		c1.2,0,2.5,0.2,4.1,0.5c2.2,0.5,4.3,1.3,6.4,2.4c0.8,0.4,1.5,0.8,2.2,1.3c0.5,0.4,1,0.7,1.5,1.2c0.1,0.1,0.3,0.2,0.5,0.5
		c0.5,0.5,0.5,0.9,0,1.4L564.3,94.1z"/>
</g>
<g>
	<path class="st0" d="M609.2,138.8c0.4,0.5,0.3,1-0.2,1.3c-2.9,2-6,3-9.1,3c-2.1,0-4.1-0.5-6-1.4c-2.4-1.2-4.4-3.1-5.8-5.6
		c-1.4-2.5-2-5.4-2-8.6V90.7H578c-0.6,0-0.9-0.3-0.9-0.9v-4.5c0-0.6,0.3-0.9,0.9-0.9h8.2l-0.1-16.7c0-0.6,0.3-0.9,0.9-0.9h4.5
		c0.6,0,0.9,0.3,0.9,0.9v16.7h9.3c0.6,0,0.9,0.3,0.9,0.9v4.5c0,0.6-0.3,0.9-0.9,0.9h-9.3v36.8c0,4.2,1.4,7,4.3,8.5
		c2.6,1.3,5.4,1,8.4-1c0.5-0.3,1-0.2,1.3,0.2L609.2,138.8z"/>
</g>
<path class="st0" d="M622.3,134.5c-5.8-5.8-8.7-12.7-8.7-20.8c0-8.3,2.8-15.2,8.3-20.9c5.5-5.7,12.3-8.5,20.2-8.5
	c7.8,0,14.4,2.9,19.9,8.6c5.5,5.6,8.2,12.4,8.2,20.3v1.5c0,0.5-0.3,0.8-0.8,0.9l-48.6,4.3c1.4,4.9,4.1,9,8.1,12.1
	c4.2,3.2,8.8,4.8,14.1,4.8c4,0,7.7-1,11.2-2.9c3.4-1.9,6.2-4.5,8.3-7.9c0.3-0.5,0.7-0.7,1.3-0.3l3.9,2.2c0.5,0.4,0.7,0.8,0.3,1.4
	c-2.7,4.3-6.3,7.7-10.8,10.2c-4.4,2.5-9.2,3.7-14.3,3.7C635,143.1,628,140.2,622.3,134.5z M626.4,97.1c-4.2,4.4-6.3,9.8-6.4,16.3
	l43.7-3.8c-0.6-5.6-3-10.2-7-13.7c-4-3.6-8.9-5.3-14.8-5.3C635.8,90.6,630.6,92.8,626.4,97.1z"/>
<g>
	<path class="st0" d="M774,142c0,0.6-0.3,0.9-0.9,0.9h-4.5c-0.6,0-0.9-0.3-0.9-0.9v-2.2c0-4,0.1-8.9,0.1-14.8v-1.8v-1.8
		c0-1.4,0-2.6,0-3.7c0-2.9,0.1-5.6,0.1-8v-2.1c0-0.7,0-1.3-0.1-1.8c-0.1-1.2-0.3-2.4-0.7-3.6c-0.8-2.4-2.1-4.5-3.9-6.4
		c-1.7-1.8-3.8-3.2-6.2-4.1c-1.1-0.5-2.3-0.8-3.5-0.9h-0.5l-0.4-0.1l-0.5-0.1c-0.1,0-0.3,0-0.5,0h-0.5h-0.1h-0.1h-0.2H750h-0.5
		c-2.3,0.1-4.5,0.7-6.6,1.8c-1.9,0.9-3.5,2.2-4.9,3.7c-1.2,1.3-2.1,2.8-2.9,4.3c-0.6,1.2-1,2.5-1.3,3.8c-0.1,0.5-0.2,0.9-0.3,1.5
		c0,0.2,0,0.4-0.1,0.5v0.5c0,0.5-0.1,0.8-0.1,1l-0.1,2v0.1c0,1.2,0,2.6,0,4.1c0,1,0,2.3,0,3.9v1.9l0.1,1.8c0,1.4,0,2.5,0,3.5
		c0,5.9,0,10.9,0,14.8v2.2c0,0.6-0.2,0.9-0.9,0.9h-4.5c-0.6,0-0.9-0.3-0.9-0.9v-2.2c0-4,0-8.9,0.1-14.8c0-1.4,0-3.8,0-7.2
		c0-1.6,0-2.9,0-3.9c0-1.5,0-2.8,0-4.1l0.1-2.1c0-0.7-0.1-1.3-0.1-1.8c-0.1-1.2-0.4-2.4-0.7-3.6c-0.8-2.4-2.1-4.5-3.9-6.4
		c-1.7-1.8-3.8-3.2-6.2-4.1c-1.1-0.5-2.3-0.8-3.6-0.9h-0.4l-0.5-0.1l-0.4-0.1c-0.2,0-0.3,0-0.5,0h-0.5h-0.1H710h-0.9
		c-2.3,0.1-4.5,0.7-6.6,1.8c-1.9,0.9-3.5,2.2-4.9,3.7c-1.2,1.3-2.2,2.8-2.9,4.3c-0.6,1.2-1.1,2.5-1.4,3.8c-0.1,0.5-0.2,0.9-0.2,1.5
		l-0.1,0.5l-0.1,0.5c0,0.5,0,0.8,0,1l-0.1,2.8V142c0,0.6-0.3,0.9-0.9,0.9h-4.5c-0.6,0-0.9-0.3-0.9-0.9V85c0-0.6,0.3-0.9,0.9-0.9h4.5
		c0.6,0,0.9,0.3,0.9,0.9v7.8l0.5-0.6c1.9-2,4-3.7,6.5-5c2.8-1.4,5.7-2.2,8.8-2.4l0.6-0.1h0.6h0.3h0.3h0.5c0.1,0,0.3,0,0.6,0l0.6,0.1
		l0.7,0.1l0.6,0.1c1.7,0.2,3.3,0.6,4.8,1.2c3.3,1.2,6.1,3.1,8.5,5.6c1.5,1.5,2.8,3.2,3.8,5.1c0.9-1.7,2-3.2,3.2-4.6
		c1.9-2,4-3.7,6.4-5c2.8-1.4,5.7-2.2,8.8-2.4l0.6-0.1h0.6h0.3h0.3h0.5c0.1,0,0.3,0,0.5,0l0.7,0.1l0.6,0.1l0.6,0.1
		c1.7,0.2,3.3,0.6,4.8,1.2c3.3,1.2,6.1,3.1,8.5,5.6c2.4,2.5,4.2,5.3,5.3,8.6c0.5,1.6,0.9,3.2,1.1,4.9c0.1,0.8,0.1,1.6,0.1,2.5v2.1
		c0,1.9,0,4.6,0.1,8v1.9v1.8c0,1.4,0,2.5,0,3.5c0,5.9,0,10.9,0.1,14.8V142z"/>
</g>
</svg>
