<svg xmlns="http://www.w3.org/2000/svg" width="202.7mm" height="184.2mm" viewBox="0 0 574.59 522.14"><rect fill="transparent" width="574.59" height="522.14"/><path fill="#000000" d="M102,410.46a22,22,0,0,1-6.18-15.61v-44a.57.57,0,0,1,.65-.65h3.1a.58.58,0,0,1,.65.65v44a17.72,17.72,0,0,0,4.88,12.47,17.56,17.56,0,0,0,30.33-12.05V350.88a.57.57,0,0,1,.65-.65h3.14c.41,0,.61.22.61.65v44.44a22,22,0,0,1-22.69,22A21,21,0,0,1,102,410.46ZM171.84,377a.6.6,0,0,1,.52.8l-.61,3a.59.59,0,0,1-.75.51,10.92,10.92,0,0,0-1.73-.14,11.69,11.69,0,0,0-11.68,11.67V416.7c0,.43-.2.65-.61.65h-3.14a.58.58,0,0,1-.65-.65V377.18a.57.57,0,0,1,.65-.65H157c.41,0,.61.21.61.65v4.69a15.44,15.44,0,0,1,11.68-5.06A18.19,18.19,0,0,1,171.84,377Zm8.82,34.41a20.32,20.32,0,1,1,14.39,6A19.71,19.71,0,0,1,180.66,411.4Zm3.09-25.64a15.9,15.9,0,1,0,11.3-4.69A15.32,15.32,0,0,0,183.75,385.76Zm74.81-25.92a.54.54,0,0,1-.84,0,8.17,8.17,0,0,1-.7-.56,10.31,10.31,0,0,1-1-.7c-.84-.59-1.65-1.13-2.44-1.59a23.88,23.88,0,0,0-6.14-2.25,24.29,24.29,0,0,0-4-.52h-2.2a9,9,0,0,0-1.22.09l-.56,0-.56.05a19.73,19.73,0,0,0-4.6,1.12,10.72,10.72,0,0,0-4,2.58,9.37,9.37,0,0,0-2.39,4.22l-.14.66a2.4,2.4,0,0,0-.1.65,9,9,0,0,0-.14,1.31l-.05.71V366l.05.37.05.8.09.56.05.28.09.33.19.61a2.66,2.66,0,0,0,.23.61l.15.28.14.33.32.56.33.57.24.28.18.28a3.54,3.54,0,0,0,.43.51A19.63,19.63,0,0,0,234.7,376a63.84,63.84,0,0,0,5.82,2.86l.79.33.8.37,1.55.71,3,1.4A52.41,52.41,0,0,1,253,385a25.29,25.29,0,0,1,5.63,4.69,14.92,14.92,0,0,1,3.33,6.8l.18.93a5.28,5.28,0,0,1,.1.94l0,.94,0,.47v.51l0,.8,0,.38v.46l-.14.94-.14.94a15.37,15.37,0,0,1-3,6.52,15.62,15.62,0,0,1-5.29,4.35,24.08,24.08,0,0,1-5.91,2.07l-.7.14-.75.09a6.39,6.39,0,0,1-1.41.19l-1.4.14-1.36.05-.66,0h-.75l-1.22,0a8.4,8.4,0,0,1-1.22-.1l-.65,0-.66-.1a30.56,30.56,0,0,1-4.64-.89,31.28,31.28,0,0,1-7.08-2.95c-.84-.5-1.64-1-2.39-1.55-.59-.4-1.16-.83-1.69-1.26l-.93-.8a.58.58,0,0,1,0-.94l2.29-2.15a.56.56,0,0,1,.89,0l.57.46a14,14,0,0,0,1.4,1.08,23.14,23.14,0,0,0,2.06,1.31,25.09,25.09,0,0,0,6.05,2.54,29.21,29.21,0,0,0,4,.84l.51.05.52,0a6.77,6.77,0,0,0,1.17.1l1.22,0h.23l.28,0h.61l1.17-.05,1.22-.09c.35,0,.75-.08,1.22-.14l.61-.14.66-.1a18.68,18.68,0,0,0,4.73-1.64,11.32,11.32,0,0,0,3.89-3.14,11.6,11.6,0,0,0,2.16-4.78l.09-.61.1-.66a1.26,1.26,0,0,0,0-.37v-.38l.05-.79v-.66l-.05-.7a6.85,6.85,0,0,0,0-.71l-.1-.32,0-.33a10.93,10.93,0,0,0-2.44-4.92q-3-3.48-10.36-6.89l-3.14-1.41-1.5-.75-.71-.33-.79-.33a60.48,60.48,0,0,1-6.24-3.09,25,25,0,0,1-5.67-4.5,7.84,7.84,0,0,1-.61-.7L226,374l-.28-.37c-.44-.69-.77-1.24-1-1.64l-.19-.47-.19-.43a4.78,4.78,0,0,1-.33-.89l-.28-.89-.09-.51-.1-.47-.18-1v-.79l0-.38v-.47h0v-.93c0-.47.09-1.07.19-1.78a8.3,8.3,0,0,1,.14-.85l.23-.84a12.91,12.91,0,0,1,3.42-6.1,16.21,16.21,0,0,1,5.44-3.51,23.71,23.71,0,0,1,5.63-1.36l.7-.05.7,0a9.26,9.26,0,0,1,1.27-.1h1.26l1.27.05a29,29,0,0,1,4.69.56,28.19,28.19,0,0,1,7.17,2.67,24,24,0,0,1,2.44,1.5c.59.38,1.17.78,1.73,1.22.19.19.48.45.89.8a.59.59,0,0,1,0,.94Zm23,74.86a.55.55,0,0,1-.56.42h-3.38a.61.61,0,0,1-.56-.28.6.6,0,0,1-.05-.61l6.75-16.78-16.64-40.13a.6.6,0,0,1,.05-.61.59.59,0,0,1,.51-.28h3.42a.56.56,0,0,1,.57.38l14.43,34.78,14-34.78a.65.65,0,0,1,.61-.38h3.38a.59.59,0,0,1,.51.28.63.63,0,0,1,.1.57Zm52-51.28a.65.65,0,0,1-.89,0,5.47,5.47,0,0,0-.89-.65,7.8,7.8,0,0,0-1.13-.71,13,13,0,0,0-3.32-1.22,19.55,19.55,0,0,0-2.21-.28H324a5.91,5.91,0,0,0-.7,0H323l-.28.05a9.25,9.25,0,0,0-2.49.61,4.92,4.92,0,0,0-2,1.31,4.1,4.1,0,0,0-1.17,2.06l-.1.33,0,.33a5.48,5.48,0,0,0-.05.7l-.05.38v-.05l.05.14v.66l.09.28a.8.8,0,0,0,.05.23l.09.33.1.28.14.28.14.28.18.28.24.29.23.28a11.08,11.08,0,0,0,2.49,1.92c.81.47,1.9,1,3.28,1.64l.47.19.51.23.89.42,1.79.75a37.73,37.73,0,0,1,3.7,2,14.34,14.34,0,0,1,3.47,3,9.07,9.07,0,0,1,2.15,4.31l.14.61a3.8,3.8,0,0,1,0,.61l.05.56V407a3.37,3.37,0,0,0-.05.52l-.09.61-.1.61A9.88,9.88,0,0,1,335,412.9a10,10,0,0,1-3.38,2.77,13.63,13.63,0,0,1-3.65,1.26,22.56,22.56,0,0,1-3.42.42h-.9l-.7,0c-.19,0-.44,0-.75-.05h-.42l-.37-.05a28.63,28.63,0,0,1-2.86-.56,20.46,20.46,0,0,1-4.32-1.83,12.87,12.87,0,0,1-1.78-1.12l-1.12-.89a.6.6,0,0,1,0-1l2.25-2.15a.59.59,0,0,1,.89-.05,5.11,5.11,0,0,0,.75.61,11.18,11.18,0,0,0,1.22.8,14.74,14.74,0,0,0,3.28,1.35,18.6,18.6,0,0,0,2.15.47l.28,0h.29a4.62,4.62,0,0,0,.65.05l.71,0h.28l.33,0a18.66,18.66,0,0,0,2.67-.24,9.45,9.45,0,0,0,2.53-.89,5.34,5.34,0,0,0,3-4l.05-.33.05-.28a1.5,1.5,0,0,0,0-.42v-.47l0-.14v0l0-.19v-.33a2.11,2.11,0,0,0,0-.37l-.05-.33a5.59,5.59,0,0,0-1.22-2.49,17,17,0,0,0-5.72-3.79l-1.82-.8-.89-.42-.38-.19-.47-.19a35.66,35.66,0,0,1-3.7-1.87,15,15,0,0,1-3.52-2.77,2.75,2.75,0,0,1-.37-.47l-.38-.46a9.72,9.72,0,0,1-.61-1.08l-.28-.57a3.71,3.71,0,0,1-.19-.56,11.66,11.66,0,0,1-.32-1.26l-.1-.66V387l0-.24v-.37l0-.56a7.05,7.05,0,0,1,.1-1.08l.09-.56.14-.57a8.55,8.55,0,0,1,2.2-3.89,10.73,10.73,0,0,1,3.47-2.25,17.14,17.14,0,0,1,3.47-.84h.47l.42-.05c.32,0,.56,0,.75,0h1.55a18.24,18.24,0,0,1,2.86.37,17.19,17.19,0,0,1,4.4,1.64,15.23,15.23,0,0,1,1.5.89c.35.25.69.52,1,.8a2.3,2.3,0,0,1,.37.33.54.54,0,0,1,0,.93Zm31.12,31c.29.38.24.67-.14.89a11,11,0,0,1-6.28,2.06,8.84,8.84,0,0,1-4.12-1,9.29,9.29,0,0,1-4-3.84,12.51,12.51,0,0,1-1.4-6v-25.5h-5.68a.58.58,0,0,1-.65-.65v-3.14a.58.58,0,0,1,.65-.66h5.68L348.75,365a.58.58,0,0,1,.66-.66h3.14a.58.58,0,0,1,.65.66v11.58h6.42a.58.58,0,0,1,.66.66v3.14a.58.58,0,0,1-.66.65H353.2v25.5q0,4.37,3,5.86c1.78.91,3.72.67,5.81-.7a.6.6,0,0,1,.89.14Zm9-3a19.68,19.68,0,0,1-6-14.44,19.91,19.91,0,0,1,5.77-14.48,19.3,19.3,0,0,1,27.79.09A19.53,19.53,0,0,1,407,396.63v1a.56.56,0,0,1-.57.61l-33.65,3a16,16,0,0,0,28.87,4.26.58.58,0,0,1,.89-.23l2.72,1.55a.62.62,0,0,1,.24.93,20.41,20.41,0,0,1-7.46,7,20,20,0,0,1-9.89,2.57A19.61,19.61,0,0,1,373.78,411.4Zm2.86-25.87a15.86,15.86,0,0,0-4.41,11.29l30.24-2.62a14.26,14.26,0,0,0-4.83-9.47,14.84,14.84,0,0,0-10.22-3.7A14.32,14.32,0,0,0,376.64,385.53ZM478.83,416.6a.58.58,0,0,1-.66.66H475a.58.58,0,0,1-.65-.66v-1.54c0-2.75,0-6.18,0-10.27v-5c0-2,.05-3.85.05-5.54v-1.45a7.93,7.93,0,0,0-.09-1.26,10.13,10.13,0,0,0-.52-2.49,11.86,11.86,0,0,0-2.67-4.41,11.69,11.69,0,0,0-4.31-2.85,10.37,10.37,0,0,0-2.44-.66h-.33l-.28-.05-.33,0h-1.59a11.66,11.66,0,0,0-4.55,1.21,12.25,12.25,0,0,0-3.38,2.54,12.7,12.7,0,0,0-2,3,11.1,11.1,0,0,0-.89,2.62,4.6,4.6,0,0,0-.19,1,1.24,1.24,0,0,1-.05.38v.32c0,.32,0,.55,0,.71l-.05,1.36v6.89l.05,1.26V416.6a.54.54,0,0,1-.61.66h-3.14a.58.58,0,0,1-.66-.66v-1.54c0-2.75,0-6.18.05-10.27V394.24l0-1.45q0-.71-.09-1.26a13.92,13.92,0,0,0-.51-2.49,12,12,0,0,0-2.68-4.41,11.53,11.53,0,0,0-4.31-2.85,10.18,10.18,0,0,0-2.48-.66h-.29l-.32-.05-.28,0h-1.6a11.61,11.61,0,0,0-4.54,1.21,12.11,12.11,0,0,0-3.38,2.54,11.15,11.15,0,0,0-2,3,10,10,0,0,0-.93,2.62,7.55,7.55,0,0,0-.14,1l-.05.38-.05.32v.71l-.09,1.92V416.6a.58.58,0,0,1-.66.66H419a.58.58,0,0,1-.66-.66V377.13a.58.58,0,0,1,.66-.65h3.09a.58.58,0,0,1,.66.65v5.4l.33-.43a16.51,16.51,0,0,1,4.5-3.47,15.81,15.81,0,0,1,6.09-1.68l.42-.05h1.64l.42.05.47,0,.43.05a15.75,15.75,0,0,1,9.18,4.69,16.49,16.49,0,0,1,2.63,3.56,15.84,15.84,0,0,1,2.25-3.19,16.74,16.74,0,0,1,4.45-3.47,15.91,15.91,0,0,1,6.09-1.68l.43-.05h1.64l.47.05.42,0,.42.05a15.33,15.33,0,0,1,3.33.84,15.62,15.62,0,0,1,5.9,3.85,16,16,0,0,1,3.66,5.95,15,15,0,0,1,.75,3.38,15.48,15.48,0,0,1,.09,1.73v1.45c0,1.35,0,3.19,0,5.54v5c0,4.09,0,7.52.05,10.27ZM291.77,87c-13.76,0-26.43,4.27-35.67,12A41.38,41.38,0,0,0,241,131.23c0,28.85,24.23,39.47,34.5,44L298,185.33l.05-.11.33.15c14.48,6.35,29.28,16.13,29.28,40.51,0,25.28-15,41.92-38.57,43-.84,0-1.69.07-2.55.07a61.08,61.08,0,0,1-61-61V87H210V208a76.62,76.62,0,0,0,76.54,76.53c1.11,0,2.2,0,3.29-.08A76.62,76.62,0,0,0,363.11,208V87Z"/></svg>