<svg version="1" xmlns="http://www.w3.org/2000/svg" width="933.333" height="933.333" viewBox="0 0 700.000000 700.000000"><path d="M204 129.8c-2.7.9-6.5 3.5-9.5 6.6-9.3 9.3-8.6-4.4-8.2 157.1.3 155.6 0 145.9 6.3 168 16.9 59.2 67.5 100.6 133.4 109.1 7.6 1 39.1 1.1 47 .1 61.4-7.3 110.5-43.3 131.3-96.2 3.8-9.8 8.2-26.8 9.2-35.5.3-3 .8-7.2 1.1-9.2.8-6.1.8-61-.1-64.8-2.8-12.9-14.2-22.3-27-22.4-9.5-.1-15 2-21 7.8-8.7 8.6-9.2 10.8-9.4 44-.1 15.5-.3 29.2-.5 30.6-.2 1.4-.7 4.7-1.1 7.5-2.4 16.2-11.8 34.8-24.6 48.9-13.5 14.7-32.9 25.9-52.2 30-11.2 2.4-12.5 2.6-23.7 3.2-21.7 1-41.6-3.7-61.1-14.7-8-4.5-28.9-23.4-28.9-26 0-.4-.6-1.4-1.2-2.1-4.2-4.4-10.6-16.4-13.6-25.3-5.7-17-5.5-10-5.7-158-.1-74.8-.5-137.6-.9-139.5-1.8-7.9-6.9-14-14.7-18.1-5.7-2.9-18.2-3.5-24.9-1.1zM478.5 129.4c-7.9 2.5-13.8 7.6-17.7 15.6-2.1 4-2.3 6.2-2.6 21.5-.1 9.3-.4 18.1-.5 19.4l-.2 2.5-17.5.1c-16.5.1-17.8.2-23 2.6-8.8 4.1-15 11.7-16.5 19.9-2.4 13.7 2.1 24.1 13.5 31.4 5.4 3.5 8.2 3.9 26.2 4.1 9.2.1 17 .3 17.2.6.3.3.6 7.7.7 16.4.1 18 1 21.6 6.9 28.9 2 2.5 5.9 5.6 9 7.3 4.6 2.4 6.7 2.8 13 2.8 11-.1 18.2-3.6 23.9-12 4.6-6.6 5.4-10.7 5.5-27.9l.1-15.9 18-.1c15.7-.2 18.6-.5 22.6-2.3 6.5-2.9 11.1-7.3 14.4-13.8 5.9-11.7 2.9-26.9-6.9-35-7.6-6.2-10.2-6.8-29.6-7.1-9.6-.1-17.8-.3-18.1-.3-.3-.1-.5-7-.5-15.4.2-23.3-1.2-28.9-9-36.5-6.9-6.7-19.6-9.7-28.9-6.8z"/></svg>